<?xml version="1.0" encoding="utf-8"?>
<!-- Generator: Adobe Illustrator 27.5.0, SVG Export Plug-In . SVG Version: 6.00 Build 0)  -->
<svg version="1.1" xmlns="http://www.w3.org/2000/svg" xmlns:xlink="http://www.w3.org/1999/xlink" x="0px" y="0px"
	 viewBox="0 0 500 500" style="enable-background:new 0 0 500 500;" xml:space="preserve">
<g id="BACKGROUND">
	<g>
		<g>
			<g style="opacity:0.41;">
				<g>
					<g>
						<path style="fill:#E1E2FE;" d="M28.813,302.943c-0.813-7.588-1.002-15.245-0.54-22.861
							c2.169-35.783,18.367-70.276,43.493-95.34c8.964-8.942,19.266-17.073,24.817-28.543c9.349-19.316,7.49-40.848,19.331-60.059
							c11.854-19.233,29.758-34.691,50.393-43.237c61.525-25.478,151.017,5.95,146.975,83.414c-0.015,0.278-0.025,0.681-0.033,1.192
							c-0.249,16.06,12.726,28.863,28.403,28.412c57.857-1.664,109.874,41.187,123.399,98.243
							c8.698,36.693-0.479,77.904-25.718,105.526c-18.84,20.619-44.893,32.779-71.127,41.576
							c-52.6,17.639-108.576,23.719-163.858,20.972c-51.747-2.572-106.808-14.803-142.126-53.477
							C43.381,358.132,31.822,331.007,28.813,302.943z"/>
					</g>
				</g>
			</g>
			<g style="opacity:0.31;">
				
					<ellipse transform="matrix(0.0211 -0.9998 0.9998 0.0211 252.1124 352.7772)" style="fill:#E1E2FE;" cx="306.208" cy="47.643" rx="13.293" ry="13.019"/>
			</g>
			<g style="opacity:0.31;">
				<path style="fill:#E1E2FE;" d="M85.618,47.999c0.189,3.783,3.346,6.69,7.051,6.494c3.705-0.196,6.556-3.422,6.366-7.205
					c-0.189-3.783-3.346-6.69-7.051-6.494C88.279,40.99,85.428,44.216,85.618,47.999z"/>
			</g>
			<g style="opacity:0.31;">
				<path style="fill:#E1E2FE;" d="M472.092,202.99c0.125,2.504,2.215,4.428,4.667,4.298c2.453-0.13,4.339-2.265,4.214-4.769
					c-0.125-2.504-2.215-4.428-4.668-4.299C473.854,198.351,471.967,200.486,472.092,202.99z"/>
			</g>
			<g style="opacity:0.31;">
				
					<ellipse transform="matrix(0.0209 -0.9998 0.9998 0.0209 -9.4832 853.1705)" style="fill:#E1E2FE;" cx="430.867" cy="431.427" rx="20.928" ry="20.496"/>
			</g>
		</g>
	</g>
	<g>
		<g>
			<path style="opacity:0.47;fill:#ECF1F7;" d="M25.721,98.01c-6.416-11.296-2.643-25.771,8.425-32.331
				c11.069-6.56,32.933-7.28,39.348,4.016c6.416,11.296-10.58,22.182-17.173,33.383C47.128,118.699,32.136,109.305,25.721,98.01z"/>
			<path style="opacity:0.47;fill:#E1E2FE;" d="M93.258,452.053c-7.953,5.857-19.044,4.026-24.773-4.089s-7.907-25.079,0.046-30.936
				s17.357,6.541,26.215,10.817C107.1,433.809,101.211,446.196,93.258,452.053z"/>
			<path style="opacity:0.47;fill:#E1E2FE;" d="M408.43,24.33c8.617-9.056,22.786-9.272,31.648-0.482s15.218,29.364,6.602,38.421
				c-8.617,9.056-22.965-4.227-34.887-7.549C395.165,50.088,399.813,33.387,408.43,24.33z"/>
		</g>
		<g>
			<path style="opacity:0.32;fill:#E1E2FE;" d="M45.018,148.177c-5.818,16.759-7.406,35.069-3.639,52.392
				c5.064,23.292,22.509,43.767,19.535,68.609c-1.785,14.907-1.467,28.571-1.826,43.217c-0.738,30.074,20.275,54.971,44.926,67.432
				c20.021,10.121,42.786,12.79,64.761,10.856c19.778-1.741,39.254-6.933,58.054-13.369c18.117-6.202,35.703-13.909,55.238-13.332
				c16.246,0.48,31.311,6.519,46.729,10.712c36.811,10.011,80.359,8.587,111.646-13.108c34.295-23.782,48.147-68.909,36.163-108.345
				c-6.428-21.152-15.01-39.486-11.906-62.023c1.527-11.086,3.805-22.37,1.702-33.362c-1.935-10.116-7.481-19.219-14.059-27.144
				c-17.736-21.37-42.984-34.996-69.231-43.013c-29.775-9.095-62.833-14.053-93.795-9.344c-60.144,9.147-73.232,0.251-136.103-8.675
				C111.096,63.7,71.562,97.187,52.368,131.734C49.459,136.969,46.994,142.484,45.018,148.177z"/>
			<g style="opacity:0.83;">
				<path style="opacity:0.81;fill:#E1E2FE;" d="M74.127,196.575c8.663-11.43,22.054-19.193,28.615-32.327
					c7.855-15.724,6.2-34.282,13.215-50.346c10.366-23.737,29.141-43.899,52.651-54.971c11.331-5.336,23.766-8.582,35.896-7.651
					c18.7,1.434,34.83,12.566,47.444,25.861c18.773,19.786,32.047,47.887,54.577,63.741c12.433,8.748,27.044-0.533,40.216-3.477
					c14.898-3.329,30.377-2.548,44.607,1.503c26.209,7.461,48.78,26.235,60.068,50.992c12.051,26.431,10.338,62.972-12.282,85.696
					c-10.465,10.513-24.656,17.539-32.422,30.131c-9.746,15.803-10.889,37.163-13.61,54.734
					c-3.005,19.405-11.299,38.309-23.764,53.995c-0.141,0.178-0.283,0.355-0.426,0.532c-21.657,26.923-58.618,36.002-89.776,22.503
					c0,0-66.294-28.721-66.296-28.722c-67.268-29.143-118.336-76.105-142.853-144.164c-5.305-14.728-7.233-46.126-0.473-60.503
					C70.791,201.389,72.361,198.906,74.127,196.575z"/>
			</g>
		</g>
	</g>
	<circle style="opacity:0.58;fill:#3E479B;" cx="384.065" cy="432.87" r="4.5"/>
	<circle style="opacity:0.58;fill:#3E479B;" cx="270.185" cy="37.611" r="2.25"/>
	<circle style="opacity:0.58;fill:#3E479B;" cx="131.316" cy="443.676" r="4.5"/>
	<circle style="opacity:0.58;fill:#EF929C;" cx="402.395" cy="463.969" r="3.5"/>
	<circle style="opacity:0.58;fill:#3E479B;" cx="58.059" cy="40.784" r="1.5"/>
	
		<ellipse transform="matrix(0.4534 -0.8913 0.8913 0.4534 181.8024 457.8894)" style="opacity:0.58;fill:#EF929C;" cx="464.22" cy="80.721" rx="5.404" ry="5.404"/>
	<path style="opacity:0.58;fill:#EF929C;" d="M75.147,26.804c-0.244,1.145-1.37,1.874-2.515,1.63
		c-1.145-0.245-1.874-1.371-1.63-2.515c0.244-1.145,1.37-1.874,2.515-1.63C74.661,24.533,75.391,25.659,75.147,26.804z"/>
	<path style="opacity:0.58;fill:#EF929C;" d="M289.773,19.957c-0.244,1.145-1.371,1.874-2.515,1.63
		c-1.145-0.244-1.874-1.371-1.63-2.515c0.244-1.145,1.371-1.874,2.515-1.63C289.287,17.686,290.017,18.812,289.773,19.957z"/>
	<path style="opacity:0.58;fill:#3E479B;" d="M438.644,86.502c-0.208,0.973-1.165,1.593-2.138,1.385
		c-0.973-0.208-1.593-1.165-1.385-2.138c0.208-0.973,1.165-1.593,2.138-1.385C438.231,84.572,438.852,85.529,438.644,86.502z"/>
	<path style="opacity:0.58;fill:#3E479B;" d="M41.101,396.909c-0.208,0.973-1.165,1.593-2.138,1.385
		c-0.973-0.208-1.593-1.165-1.385-2.138c0.208-0.973,1.165-1.593,2.138-1.385C40.689,394.979,41.309,395.936,41.101,396.909z"/>
</g>
<g id="OBJECTS">
	<g>
		<g style="opacity:0.66;">
			<g>
				<g>
					<path style="fill:#FFFFFF;" d="M371.123,208.384h-7.806c-3.276,0-5.942-2.666-5.942-5.943v-8.781
						c0-1.646-1.041-3.134-2.591-3.702c-0.922-0.338-1.84-0.719-2.729-1.131c-1.519-0.704-3.325-0.396-4.489,0.769l-6.209,6.209
						c-1.122,1.123-2.615,1.741-4.202,1.741c-1.588,0-3.08-0.618-4.203-1.741l-5.52-5.519c-2.316-2.317-2.316-6.088,0-8.405
						l6.21-6.209c1.164-1.165,1.473-2.969,0.769-4.49c-0.414-0.896-0.795-1.814-1.13-2.73c-0.569-1.549-2.057-2.59-3.703-2.59h-8.78
						c-3.277,0-5.943-2.666-5.943-5.943v-7.806c0-3.277,2.666-5.943,5.943-5.943h8.78c1.647,0,3.135-1.041,3.703-2.59
						c0.336-0.917,0.717-1.835,1.13-2.729c0.704-1.521,0.396-3.326-0.769-4.49l-6.21-6.21c-2.316-2.317-2.316-6.087,0-8.405
						l5.52-5.52c2.315-2.317,6.088-2.318,8.405,0l6.209,6.21c1.164,1.165,2.968,1.474,4.489,0.769
						c0.897-0.415,1.815-0.795,2.73-1.13c1.549-0.568,2.59-2.057,2.59-3.703v-8.781c0-3.277,2.666-5.943,5.942-5.943h7.806
						c3.277,0,5.943,2.666,5.943,5.943v8.781c0,1.646,1.041,3.134,2.591,3.703c0.914,0.335,1.833,0.715,2.728,1.13
						c1.521,0.705,3.326,0.396,4.49-0.769l6.209-6.21c2.316-2.317,6.089-2.318,8.405,0l5.52,5.52c2.316,2.317,2.316,6.087,0,8.405
						l-6.21,6.21c-1.165,1.165-1.474,2.969-0.768,4.489c0.413,0.895,0.794,1.813,1.13,2.73c0.568,1.549,2.057,2.59,3.703,2.59h8.78
						c3.277,0,5.943,2.666,5.943,5.943v7.806c0,3.277-2.666,5.943-5.943,5.943h-8.78c-1.647,0-3.134,1.041-3.703,2.59
						c-0.335,0.915-0.716,1.833-1.129,2.729c-0.706,1.521-0.397,3.326,0.768,4.491l6.21,6.209c2.316,2.317,2.316,6.087,0,8.405
						l-5.52,5.519c-1.123,1.123-2.615,1.741-4.203,1.741c-1.587,0-3.08-0.618-4.202-1.741l-6.209-6.209
						c-1.164-1.165-2.969-1.473-4.49-0.769c-0.889,0.412-1.807,0.792-2.728,1.131c-1.55,0.568-2.591,2.056-2.591,3.702v8.781
						C377.066,205.718,374.4,208.384,371.123,208.384z M350.36,186.454c0.858,0,1.725,0.183,2.535,0.559
						c0.84,0.389,1.707,0.748,2.578,1.067c2.333,0.856,3.901,3.099,3.901,5.58v8.781c0,2.174,1.769,3.943,3.942,3.943h7.806
						c2.175,0,3.943-1.769,3.943-3.943v-8.781c0-2.482,1.568-4.724,3.901-5.58c0.871-0.319,1.738-0.679,2.577-1.067
						c2.279-1.055,4.991-0.586,6.745,1.169l6.209,6.21c1.538,1.538,4.041,1.536,5.577,0l5.519-5.519c1.537-1.538,1.537-4.04,0-5.577
						l-6.21-6.21c-1.756-1.756-2.225-4.467-1.169-6.745c0.391-0.845,0.75-1.713,1.067-2.577c0.855-2.334,3.099-3.902,5.58-3.902
						h8.78c2.175,0,3.943-1.769,3.943-3.943v-7.806c0-2.174-1.769-3.943-3.943-3.943h-8.78c-2.482,0-4.725-1.568-5.58-3.901
						c-0.318-0.866-0.678-1.733-1.067-2.578c-1.057-2.277-0.587-4.988,1.169-6.744l6.21-6.21c1.536-1.538,1.536-4.039,0-5.577
						l-5.519-5.52c-1.537-1.538-4.04-1.536-5.577,0l-6.209,6.21c-1.755,1.756-4.467,2.225-6.745,1.169
						c-0.846-0.391-1.713-0.751-2.576-1.067c-2.334-0.856-3.902-3.099-3.902-5.581v-8.781c0-2.174-1.768-3.943-3.943-3.943h-7.806
						c-2.174,0-3.942,1.769-3.942,3.943v8.781c0,2.482-1.568,4.724-3.901,5.581c-0.864,0.316-1.731,0.676-2.578,1.067
						c-2.275,1.056-4.988,0.587-6.744-1.17l-6.209-6.21c-1.537-1.538-4.04-1.536-5.577,0l-5.52,5.52
						c-1.536,1.538-1.536,4.039,0,5.577l6.21,6.21c1.755,1.755,2.225,4.466,1.169,6.745c-0.39,0.844-0.749,1.711-1.067,2.577
						c-0.855,2.333-3.099,3.901-5.58,3.901h-8.78c-2.175,0-3.943,1.769-3.943,3.943v7.806c0,2.174,1.769,3.943,3.943,3.943h8.78
						c2.482,0,4.725,1.568,5.58,3.902c0.317,0.864,0.677,1.731,1.068,2.578c1.055,2.278,0.585,4.988-1.17,6.744l-6.21,6.21
						c-1.537,1.537-1.537,4.039,0,5.577l5.52,5.519c1.536,1.536,4.039,1.537,5.577,0l6.209-6.21
						C347.281,187.052,348.809,186.454,350.36,186.454z M367.221,183.467c-15.136,0-27.45-12.314-27.45-27.45
						c0-15.136,12.315-27.45,27.45-27.45c15.136,0,27.45,12.314,27.45,27.45C394.671,171.153,382.356,183.467,367.221,183.467z
						 M367.221,130.567c-14.033,0-25.45,11.417-25.45,25.45c0,14.033,11.417,25.45,25.45,25.45c14.033,0,25.45-11.417,25.45-25.45
						C392.671,141.984,381.254,130.567,367.221,130.567z"/>
				</g>
				<g style="opacity:0.84;">
					<path style="fill:#FFFFFF;" d="M356.59,351.073h-9.738c-2.302,0-4.355-1.439-5.147-3.6c-0.367-1.001-0.774-1.982-1.219-2.942
						c-0.975-2.104-0.565-4.59,1.075-6.229l6.886-6.887c2.141-2.141,2.141-5.612,0-7.753l-6.121-6.121
						c-2.141-2.141-5.612-2.141-7.753,0l-6.886,6.887c-1.64,1.64-4.125,2.05-6.23,1.075c-0.96-0.445-1.942-0.852-2.942-1.219
						c-2.161-0.792-3.6-2.846-3.6-5.147v-9.738c0-3.028-2.454-5.482-5.482-5.482h-8.657c-3.028,0-5.482,2.454-5.482,5.482v9.738
						c0,2.302-1.439,4.355-3.6,5.147c-1.001,0.367-1.982,0.774-2.943,1.219c-2.104,0.975-4.589,0.565-6.229-1.075l-6.887-6.887
						c-2.141-2.141-5.612-2.141-7.753,0l-6.121,6.121c-2.141,2.141-2.141,5.612,0,7.753l6.887,6.887
						c1.64,1.64,2.05,4.125,1.075,6.229c-0.445,0.96-0.852,1.942-1.219,2.942c-0.793,2.161-2.846,3.6-5.147,3.6h-9.738
						c-3.028,0-5.482,2.454-5.482,5.482v8.657c0,3.028,2.454,5.482,5.482,5.482h9.738c2.302,0,4.355,1.439,5.147,3.6
						c0.367,1.001,0.774,1.982,1.219,2.943c0.975,2.104,0.565,4.589-1.075,6.229l-6.887,6.886c-2.141,2.141-2.141,5.612,0,7.753
						l6.121,6.121c2.141,2.141,5.612,2.141,7.753,0l6.887-6.887c1.64-1.64,4.125-2.05,6.229-1.075
						c0.96,0.445,1.942,0.852,2.942,1.219c2.161,0.792,3.6,2.846,3.6,5.147v9.738c0,3.028,2.454,5.482,5.482,5.482h8.657
						c3.028,0,5.482-2.454,5.482-5.482v-9.738c0-2.302,1.439-4.355,3.6-5.147c1.001-0.367,1.982-0.774,2.942-1.219
						c2.104-0.975,4.589-0.565,6.229,1.075l6.887,6.887c2.141,2.141,5.612,2.141,7.753,0l6.121-6.121
						c2.141-2.141,2.141-5.612,0-7.753l-6.886-6.886c-1.64-1.64-2.05-4.125-1.075-6.229c0.445-0.96,0.852-1.942,1.219-2.943
						c0.793-2.161,2.846-3.6,5.147-3.6h9.738c3.028,0,5.482-2.454,5.482-5.482v-8.657
						C362.072,353.528,359.618,351.073,356.59,351.073z M305.105,390.217c-16.2,0-29.333-13.133-29.333-29.333
						c0-16.2,13.133-29.333,29.333-29.333s29.333,13.133,29.333,29.333C334.439,377.084,321.306,390.217,305.105,390.217z"/>
				</g>
				<g>
					<path style="fill:#FFFFFF;" d="M204.288,409.396h-6.557c-2.841,0-5.153-2.311-5.153-5.152v-7.376
						c0-1.316-0.833-2.506-2.071-2.961c-0.773-0.282-1.549-0.604-2.304-0.954c-1.217-0.563-2.66-0.316-3.591,0.614l-5.216,5.216
						c-0.973,0.974-2.267,1.51-3.643,1.51c-1.376,0-2.67-0.536-3.644-1.51l-4.636-4.637c-0.973-0.973-1.509-2.267-1.509-3.643
						c0-1.376,0.536-2.67,1.509-3.643l5.216-5.216c0.931-0.932,1.178-2.374,0.614-3.591c-0.348-0.752-0.669-1.526-0.955-2.305
						c-0.454-1.239-1.644-2.072-2.96-2.072h-7.377c-2.841,0-5.152-2.312-5.152-5.152v-6.557c0-2.841,2.312-5.152,5.152-5.152h7.377
						c1.316,0,2.505-0.832,2.959-2.071c0.288-0.783,0.609-1.559,0.955-2.305c0.564-1.217,0.317-2.66-0.614-3.591l-5.216-5.217
						c-0.973-0.973-1.509-2.267-1.509-3.643c0-1.376,0.536-2.67,1.509-3.644l4.636-4.637c2.009-2.008,5.278-2.008,7.287,0
						l5.216,5.217c0.931,0.931,2.373,1.179,3.591,0.613c0.746-0.346,1.521-0.666,2.305-0.954c1.239-0.455,2.071-1.645,2.071-2.96
						v-7.377c0-2.841,2.311-5.152,5.153-5.152h6.557c2.841,0,5.152,2.312,5.152,5.152v7.377c0,1.316,0.832,2.505,2.072,2.96
						c0.784,0.288,1.559,0.608,2.304,0.954c1.218,0.565,2.66,0.317,3.591-0.613l5.216-5.217c2.009-2.008,5.277-2.008,7.286,0
						l4.637,4.637c0.973,0.974,1.509,2.268,1.509,3.644c0,1.376-0.536,2.67-1.509,3.643l-5.216,5.217
						c-0.931,0.931-1.178,2.374-0.614,3.592c0.347,0.745,0.668,1.521,0.955,2.305c0.455,1.238,1.644,2.07,2.96,2.07h7.376
						c2.841,0,5.152,2.311,5.152,5.152v6.557c0,2.841-2.312,5.152-5.152,5.152h-7.376c-1.316,0-2.505,0.833-2.96,2.072
						c-0.286,0.777-0.607,1.554-0.955,2.305c-0.564,1.217-0.317,2.659,0.614,3.591l5.216,5.216c0.973,0.974,1.509,2.268,1.509,3.643
						c0,1.376-0.536,2.67-1.509,3.643l-4.637,4.637c-0.973,0.974-2.267,1.51-3.643,1.51s-2.67-0.536-3.643-1.51l-5.216-5.216
						c-0.931-0.931-2.375-1.177-3.591-0.614c-0.758,0.352-1.534,0.672-2.305,0.955c-1.238,0.454-2.071,1.644-2.071,2.96v7.376
						C209.44,407.084,207.129,409.396,204.288,409.396z M186.848,390.654c0.743,0,1.493,0.158,2.196,0.483
						c0.706,0.327,1.43,0.627,2.152,0.891c2.023,0.743,3.383,2.688,3.383,4.839v7.376c0,1.738,1.415,3.152,3.153,3.152h6.557
						c1.738,0,3.152-1.414,3.152-3.152v-7.376c0-2.151,1.359-4.096,3.382-4.838c0.721-0.264,1.445-0.564,2.153-0.892
						c1.976-0.913,4.326-0.506,5.846,1.015l5.216,5.216c1.191,1.191,3.267,1.191,4.458,0l4.637-4.637
						c0.595-0.596,0.923-1.387,0.923-2.229s-0.328-1.634-0.923-2.229l-5.216-5.216c-1.522-1.521-1.93-3.871-1.015-5.846
						c0.325-0.702,0.625-1.426,0.892-2.152c0.743-2.024,2.687-3.384,4.838-3.384h7.376c1.738,0,3.152-1.414,3.152-3.152v-6.557
						c0-1.738-1.414-3.152-3.152-3.152h-7.376c-2.151,0-4.095-1.359-4.838-3.382c-0.268-0.731-0.568-1.455-0.891-2.152
						c-0.915-1.976-0.507-4.325,1.014-5.847l5.216-5.217c0.595-0.596,0.923-1.387,0.923-2.228s-0.328-1.634-0.923-2.23l-4.637-4.637
						c-1.229-1.229-3.229-1.229-4.458,0l-5.216,5.217c-1.521,1.522-3.871,1.93-5.847,1.014c-0.695-0.322-1.42-0.622-2.152-0.892
						c-2.023-0.742-3.382-2.686-3.382-4.837v-7.377c0-1.738-1.414-3.152-3.152-3.152h-6.557c-1.738,0-3.153,1.414-3.153,3.152v7.377
						c0,2.151-1.359,4.095-3.382,4.837c-0.732,0.27-1.457,0.569-2.153,0.892c-1.976,0.916-4.325,0.509-5.846-1.014l-5.216-5.217
						c-1.229-1.229-3.23-1.229-4.459,0l-4.636,4.637c-0.595,0.596-0.923,1.388-0.923,2.23s0.328,1.633,0.923,2.228l5.216,5.217
						c1.521,1.522,1.929,3.871,1.014,5.846c-0.323,0.697-0.623,1.422-0.892,2.153c-0.741,2.023-2.686,3.382-4.837,3.382h-7.377
						c-1.738,0-3.152,1.414-3.152,3.152v6.557c0,1.738,1.414,3.152,3.152,3.152h7.377c2.151,0,4.095,1.359,4.837,3.383
						c0.267,0.727,0.567,1.451,0.892,2.153c0.916,1.975,0.508,4.324-1.014,5.846l-5.216,5.216c-0.595,0.596-0.923,1.388-0.923,2.229
						s0.328,1.633,0.923,2.229l4.636,4.637c1.191,1.19,3.267,1.192,4.459,0l5.216-5.216
						C184.178,391.172,185.501,390.654,186.848,390.654z M201.01,388.464c-12.803,0-23.219-10.416-23.219-23.219
						c0-12.803,10.416-23.219,23.219-23.219c12.803,0,23.219,10.416,23.219,23.219C224.228,378.048,213.812,388.464,201.01,388.464z
						 M201.01,344.026c-11.7,0-21.219,9.518-21.219,21.219c0,11.7,9.519,21.219,21.219,21.219s21.219-9.519,21.219-21.219
						C222.228,353.545,212.71,344.026,201.01,344.026z"/>
				</g>
			</g>
		</g>
		<g>
			<g style="opacity:0.81;">
				<path style="fill:#FFFFFF;" d="M416.432,300.922h-13.036c-0.553,0-1-0.447-1-1c0-0.553,0.447-1,1-1h13.036c0.553,0,1,0.447,1,1
					C417.432,300.475,416.984,300.922,416.432,300.922z"/>
				<path style="fill:#FFFFFF;" d="M416.432,322.404h-13.036c-0.553,0-1-0.447-1-1s0.447-1,1-1h13.036c0.553,0,1,0.447,1,1
					S416.984,322.404,416.432,322.404z"/>
				<g>
					<g>
						<g>
							<path style="fill:#FFFFFF;" d="M425.647,344.1h-79.264c-1.495,0-2.712-1.217-2.712-2.712v-66.269
								c0-1.495,1.217-2.711,2.712-2.711h79.264c1.495,0,2.712,1.216,2.712,2.711v66.269
								C428.359,342.883,427.143,344.1,425.647,344.1z M346.384,274.408c-0.393,0-0.712,0.319-0.712,0.711v66.269
								c0,0.393,0.319,0.712,0.712,0.712h79.264c0.393,0,0.712-0.319,0.712-0.712v-66.269c0-0.392-0.319-0.711-0.712-0.711H346.384z
								"/>
							<path style="opacity:0.66;fill:#FFFFFF;" d="M425.647,344.1h-79.264c-1.495,0-2.712-1.217-2.712-2.712v-66.269
								c0-1.495,1.217-2.711,2.712-2.711h79.264c1.495,0,2.712,1.216,2.712,2.711v66.269
								C428.359,342.883,427.143,344.1,425.647,344.1z M346.384,274.408c-0.393,0-0.712,0.319-0.712,0.711v66.269
								c0,0.393,0.319,0.712,0.712,0.712h79.264c0.393,0,0.712-0.319,0.712-0.712v-66.269c0-0.392-0.319-0.711-0.712-0.711H346.384z
								"/>
						</g>
					</g>
					<path style="fill:#FFFFFF;" d="M416.432,290.496h-62.123c-0.553,0-1-0.447-1-1s0.447-1,1-1h62.123c0.553,0,1,0.447,1,1
						S416.984,290.496,416.432,290.496z"/>
					<path style="fill:#FFFFFF;" d="M416.432,311.347h-62.123c-0.553,0-1-0.447-1-1c0-0.553,0.447-1,1-1h62.123c0.553,0,1,0.447,1,1
						C417.432,310.899,416.984,311.347,416.432,311.347z"/>
					<path style="fill:#FFFFFF;" d="M387.802,300.922h-33.493c-0.553,0-1-0.447-1-1c0-0.553,0.447-1,1-1h33.493c0.553,0,1,0.447,1,1
						C388.802,300.475,388.354,300.922,387.802,300.922z"/>
					<path style="fill:#FFFFFF;" d="M387.802,322.404h-33.493c-0.553,0-1-0.447-1-1s0.447-1,1-1h33.493c0.553,0,1,0.447,1,1
						S388.354,322.404,387.802,322.404z"/>
					<path style="fill:#FFFFFF;" d="M376.896,332.356h-22.588c-0.553,0-1-0.447-1-1c0-0.553,0.447-1,1-1h22.588c0.553,0,1,0.447,1,1
						C377.896,331.909,377.449,332.356,376.896,332.356z"/>
				</g>
			</g>
			<g style="opacity:0.81;">
				<path style="fill:#FFFFFF;" d="M162.798,191.56h-14.791c-0.552,0-1-0.448-1-1c0-0.552,0.448-1,1-1h14.791c0.552,0,1,0.448,1,1
					C163.798,191.112,163.35,191.56,162.798,191.56z"/>
				<path style="fill:#FFFFFF;" d="M162.798,215.933h-14.791c-0.552,0-1-0.448-1-1c0-0.552,0.448-1,1-1h14.791c0.552,0,1,0.448,1,1
					C163.798,215.485,163.35,215.933,162.798,215.933z"/>
				<g>
					<g>
						<g>
							<path style="fill:#FFFFFF;" d="M173.484,240.546H83.095c-1.495,0-2.711-1.216-2.711-2.711V162.19
								c0-1.495,1.216-2.711,2.711-2.711h90.389c1.495,0,2.711,1.216,2.711,2.711v75.645
								C176.195,239.33,174.979,240.546,173.484,240.546z M83.095,161.479c-0.392,0-0.711,0.319-0.711,0.711v75.645
								c0,0.392,0.319,0.711,0.711,0.711h90.389c0.392,0,0.711-0.319,0.711-0.711V162.19c0-0.392-0.319-0.711-0.711-0.711H83.095z"
								/>
							<path style="opacity:0.66;fill:#FFFFFF;" d="M173.484,240.546H83.095c-1.495,0-2.711-1.216-2.711-2.711V162.19
								c0-1.495,1.216-2.711,2.711-2.711h90.389c1.495,0,2.711,1.216,2.711,2.711v75.645
								C176.195,239.33,174.979,240.546,173.484,240.546z M83.095,161.479c-0.392,0-0.711,0.319-0.711,0.711v75.645
								c0,0.392,0.319,0.711,0.711,0.711h90.389c0.392,0,0.711-0.319,0.711-0.711V162.19c0-0.392-0.319-0.711-0.711-0.711H83.095z"
								/>
						</g>
					</g>
					<path style="fill:#FFFFFF;" d="M162.798,179.731H92.317c-0.552,0-1-0.448-1-1c0-0.552,0.448-1,1-1h70.481c0.552,0,1,0.448,1,1
						C163.798,179.283,163.35,179.731,162.798,179.731z"/>
					<path style="fill:#FFFFFF;" d="M162.798,203.388H92.317c-0.552,0-1-0.448-1-1c0-0.552,0.448-1,1-1h70.481c0.552,0,1,0.448,1,1
						C163.798,202.94,163.35,203.388,162.798,203.388z"/>
					<path style="fill:#FFFFFF;" d="M130.316,191.56H92.317c-0.552,0-1-0.448-1-1c0-0.552,0.448-1,1-1h37.999c0.552,0,1,0.448,1,1
						C131.316,191.112,130.868,191.56,130.316,191.56z"/>
					<path style="fill:#FFFFFF;" d="M130.316,215.933H92.317c-0.552,0-1-0.448-1-1c0-0.552,0.448-1,1-1h37.999c0.552,0,1,0.448,1,1
						C131.316,215.485,130.868,215.933,130.316,215.933z"/>
					<path style="fill:#FFFFFF;" d="M117.943,227.224H92.317c-0.552,0-1-0.448-1-1c0-0.552,0.448-1,1-1h25.627c0.552,0,1,0.448,1,1
						C118.943,226.776,118.496,227.224,117.943,227.224z"/>
				</g>
			</g>
		</g>
	</g>
	<g>
		<g>
			<g>
				<path style="fill:#3E479B;" d="M423.193,158.019h-7.886h-31.684h-5.378c-2.01,0-3.799,1.468-4.459,3.658l-1.489,4.94
					c-0.66,2.19-2.449,3.658-4.459,3.658h-64.346c-2.607,0-4.721,2.439-4.721,5.448l0,0v72.853c0,3.009,2.114,5.448,4.721,5.448
					h0.319h111.495h7.886c2.784,0,5.04-2.439,5.04-5.448v-67.066v-11.234v-6.808C428.234,160.458,425.977,158.019,423.193,158.019z"
					/>
				<path style="fill:#6D6CD4;" d="M377.273,171.043l1.59-4.94c0.705-2.19,2.615-3.658,4.761-3.658h39.57
					c2.784,0,5.04,2.439,5.04,5.448v6.808v11.234v67.066c0,3.009-2.257,5.448-5.04,5.448H303.812c-2.784,0-5.04-2.439-5.04-5.448
					v-72.853c0-3.009,2.257-5.448,5.04-5.448h68.7C374.658,174.701,376.568,173.233,377.273,171.043z"/>
				<path style="opacity:0.12;fill:#FFFFFF;" d="M380.2,176.064l1.498-4.656c0.664-2.064,2.465-3.448,4.487-3.448h37.297
					c2.624,0,4.751,2.299,4.751,5.135v6.417V190.1v63.214c0,2.836-2.127,5.135-4.751,5.135H310.958
					c-2.624,0-4.751-2.299-4.751-5.135v-68.668c0-2.836,2.127-5.135,4.751-5.135h64.754
					C377.735,179.511,379.535,178.128,380.2,176.064z"/>
			</g>
			<path style="fill:#FFFFFF;" d="M414.595,252.308h-29.529c-0.553,0-1-0.447-1-1c0-0.552,0.447-1,1-1h29.529
				c1.905,0,3.455-1.55,3.455-3.456v-23.426c0-0.552,0.447-1,1-1c0.553,0,1,0.448,1,1v23.426
				C420.05,249.86,417.602,252.308,414.595,252.308z"/>
		</g>
		<g>
			<g>
				<g>
					<path style="fill:#F28393;" d="M70.628,240.875h7.937h31.889h5.412c2.022,0,3.823,1.651,4.488,4.115l1.499,5.557
						c0.664,2.464,2.465,4.115,4.488,4.115h64.761c2.624,0,4.751,2.744,4.751,6.128v0v81.952c0,3.384-2.127,6.128-4.751,6.128
						h-0.322H78.564h-7.937c-2.802,0-5.073-2.744-5.073-6.128v-75.442v-12.637v-7.659C65.555,243.618,67.826,240.875,70.628,240.875
						z"/>
					<path style="opacity:0.12;fill:#FFFFFF;" d="M116.845,255.526l-1.6-5.557c-0.709-2.464-2.632-4.115-4.791-4.115H70.628
						c-2.802,0-5.073,2.744-5.073,6.128v7.658v12.638v75.442c0,3.384,2.271,6.128,5.073,6.128h120.151
						c2.802,0,5.073-2.744,5.073-6.128v-81.951c0-3.384-2.271-6.128-5.073-6.128h-69.143
						C119.477,259.641,117.554,257.99,116.845,255.526z"/>
					<path style="opacity:0.12;fill:#FFFFFF;" d="M113.899,261.173l-1.508-5.238c-0.669-2.322-2.481-3.878-4.516-3.878H70.336
						c-2.641,0-4.782,2.586-4.782,5.776v7.219v11.912v71.109c0,3.19,2.141,5.776,4.782,5.776h113.25
						c2.641,0,4.782-2.586,4.782-5.776v-77.245c0-3.19-2.141-5.776-4.782-5.776h-65.172
						C116.38,265.052,114.567,263.495,113.899,261.173z"/>
				</g>
			</g>
			<path style="fill:#FFFFFF;" d="M74.798,276.053c-0.494,0-0.895-0.447-0.895-1v-13.881c0-1.88,1.368-3.409,3.05-3.409h18.644
				c0.494,0,0.895,0.447,0.895,1c0,0.553-0.401,1-0.895,1H76.954c-0.695,0-1.261,0.632-1.261,1.409v13.881
				C75.693,275.606,75.292,276.053,74.798,276.053z"/>
		</g>
	</g>
	<g>
		<g>
			<g>
				<g>
					<path style="fill:#C5D9FF;" d="M316.982,197.876H188.473c-21.34,0-38.64-17.3-38.64-38.64v0c0-21.34,17.3-38.64,38.64-38.64
						h128.508c21.34,0,38.64,17.3,38.64,38.64v0C355.622,180.576,338.322,197.876,316.982,197.876z"/>
					<circle style="fill:#599AF2;" cx="252.728" cy="126.504" r="54.343"/>
				</g>
			</g>
			<g>
				<path style="fill:#599AF2;" d="M316.982,186.492H188.473c-21.34,0-38.64-17.3-38.64-38.64v0c0-21.34,17.3-38.64,38.64-38.64
					h128.508c21.34,0,38.64,17.3,38.64,38.64v0C355.622,169.192,338.322,186.492,316.982,186.492z"/>
				
					<ellipse transform="matrix(0.9184 -0.3957 0.3957 0.9184 -24.9252 109.3952)" style="fill:#599AF2;" cx="252.728" cy="115.12" rx="54.343" ry="54.343"/>
			</g>
			<g style="opacity:0.35;">
				<g>
					<path style="fill:#ECF1F7;" d="M316.982,186.492H188.473c-21.34,0-38.64-17.3-38.64-38.64v0c0-21.34,17.3-38.64,38.64-38.64
						h128.508c21.34,0,38.64,17.3,38.64,38.64v0C355.622,169.192,338.322,186.492,316.982,186.492z"/>
					
						<ellipse transform="matrix(0.9184 -0.3957 0.3957 0.9184 -24.9252 109.3952)" style="fill:#ECF1F7;" cx="252.728" cy="115.12" rx="54.343" ry="54.343"/>
				</g>
			</g>
			<g>
				<g>
					<path style="fill:#FFFFFF;" d="M240.019,123.209c-0.647,0-1.293-0.25-1.783-0.748c-0.968-0.984-0.955-2.567,0.03-3.535
						l14.583-14.337l14.353,14.352c0.977,0.976,0.977,2.559,0,3.535c-0.977,0.977-2.559,0.977-3.535,0l-10.847-10.846
						l-11.049,10.861C241.285,122.97,240.652,123.209,240.019,123.209z"/>
					<path style="fill:#FFFFFF;" d="M252.727,143.092c-1.381,0-2.5-1.119-2.5-2.5v-32.483c0-1.381,1.119-2.5,2.5-2.5
						c1.381,0,2.5,1.119,2.5,2.5v32.483C255.227,141.973,254.108,143.092,252.727,143.092z"/>
				</g>
				<path style="fill:#FFFFFF;" d="M276.358,158.517h-47.635c-3.414,0-6.193-2.778-6.193-6.193v-17.306c0-1.381,1.119-2.5,2.5-2.5
					c1.381,0,2.5,1.119,2.5,2.5v17.306c0,0.658,0.535,1.193,1.193,1.193h47.635c0.863,0,1.566-0.703,1.566-1.566v-16.932
					c0-1.381,1.119-2.5,2.5-2.5c1.381,0,2.5,1.119,2.5,2.5v16.932C282.925,155.571,279.979,158.517,276.358,158.517z"/>
			</g>
		</g>
		<g>
			<path style="opacity:0.36;fill:#4C65BA;" d="M328.322,323.934l-136.324,45.041c-3.334,1.101-6.929-0.708-8.031-4.042
				l-45.041-136.325c-1.102-3.334,0.708-6.929,4.042-8.031l136.324-45.041c3.334-1.102,6.929,0.708,8.031,4.042l45.041,136.324
				C333.466,319.237,331.656,322.832,328.322,323.934z"/>
			<path style="fill:#FFFFFF;" d="M318.303,318.891l-136.325,45.041c-3.334,1.102-6.929-0.708-8.031-4.042l-45.041-136.324
				c-1.101-3.334,0.708-6.929,4.042-8.031l136.324-45.041c3.334-1.102,6.929,0.708,8.031,4.042l45.041,136.325
				C323.446,314.194,321.636,317.789,318.303,318.891z"/>
			<g>
				
					<rect x="160.707" y="202.407" transform="matrix(0.9495 -0.3137 0.3137 0.9495 -72.4518 84.2469)" style="fill:#C5D9FF;" width="129.667" height="129.667"/>
				<path style="opacity:0.47;fill:#FFFFFF;" d="M183.273,350.184l-9.209-27.875l13.471-32.47c1.865-4.494,6.775-6.796,11.424-5.353
					l24.936,7.745c1.474,0.46,3.059-0.146,3.853-1.469l20.761-34.553c4.409-7.339,13.666-10.322,21.53-6.938l22.865,9.836
					l0.211,0.641l16.128,48.817l-1.424,0.47L183.273,350.184z M177.262,322.428l7.919,23.967l120.273-39.738l-14.976-45.326
					l-21.625-9.304c-6.495-2.795-14.134-0.33-17.773,5.728l-20.761,34.553c-1.508,2.511-4.514,3.66-7.314,2.789l-24.936-7.745
					c-3.159-0.981-6.496,0.583-7.764,3.639L177.262,322.428z"/>
				<path style="opacity:0.47;fill:#FFFFFF;" d="M224.379,254.176c-6.698,0-12.95-4.254-15.164-10.953
					c-2.76-8.355,1.791-17.398,10.146-20.158c8.354-2.757,17.397,1.791,20.158,10.146c2.76,8.355-1.791,17.398-10.145,20.158
					C227.718,253.916,226.035,254.176,224.379,254.176z M224.358,225.258c-1.345,0-2.71,0.211-4.055,0.655
					c-6.784,2.241-10.48,9.584-8.238,16.368c2.241,6.785,9.586,10.48,16.368,8.238c6.784-2.241,10.48-9.584,8.238-16.368
					C234.874,228.712,229.796,225.258,224.358,225.258z"/>
			</g>
		</g>
		<g>
			<path style="opacity:0.36;fill:#4C65BA;" d="M369.362,348.479H262.936c-3.511,0-6.357-2.846-6.357-6.357V235.696
				c0-3.511,2.846-6.357,6.357-6.357h106.426c3.511,0,6.357,2.846,6.357,6.357v106.426
				C375.719,345.633,372.873,348.479,369.362,348.479z"/>
			<path style="fill:#FFFFFF;" d="M363.315,342.432H256.889c-3.511,0-6.357-2.846-6.357-6.357V229.649
				c0-3.511,2.846-6.357,6.357-6.357h106.426c3.511,0,6.357,2.846,6.357,6.357v106.426
				C369.672,339.586,366.826,342.432,363.315,342.432z"/>
			<g>
				<rect x="260.61" y="233.438" style="opacity:0.39;fill:#F7A9B4;" width="98.847" height="98.848"/>
				<path style="opacity:0.47;fill:#FFFFFF;" d="M361.095,333.147H259.247v-22.867l17.602-20.383
					c2.549-2.947,6.859-3.461,10.028-1.199l16.196,11.569c0.821,0.587,1.933,0.538,2.7-0.122l23.291-20.045
					c5.081-4.375,12.698-4.318,17.713,0.131l14.317,12.694V333.147z M262.247,330.147h95.848v-35.872l-13.308-11.8
					c-3.898-3.456-9.816-3.501-13.766-0.102l-23.291,20.045c-1.817,1.563-4.448,1.685-6.4,0.29l-16.197-11.569
					c-1.901-1.357-4.487-1.047-6.014,0.719l-16.872,19.537V330.147z"/>
				<path style="opacity:0.47;fill:#FFFFFF;" d="M316.126,274.094c-6.904,0-12.521-5.616-12.521-12.521
					c0-6.904,5.616-12.521,12.521-12.521c6.904,0,12.521,5.617,12.521,12.521C328.647,268.478,323.03,274.094,316.126,274.094z
					 M316.126,252.052c-5.25,0-9.521,4.271-9.521,9.521s4.271,9.521,9.521,9.521s9.521-4.271,9.521-9.521
					S321.376,252.052,316.126,252.052z"/>
			</g>
		</g>
		<g>
			<path style="opacity:0.36;fill:#4C65BA;" d="M293.386,358.686l-60.163,22.542c-3.288,1.232-6.952-0.435-8.184-3.723
				l-22.542-60.163c-1.232-3.288,0.435-6.952,3.723-8.184l60.163-22.542c3.288-1.232,6.952,0.435,8.184,3.723l22.542,60.163
				C298.34,353.791,296.674,357.455,293.386,358.686z"/>
			<path style="fill:#FFFFFF;" d="M288.358,356.399l-60.163,22.542c-3.288,1.232-6.952-0.435-8.184-3.723l-22.542-60.163
				c-1.232-3.288,0.435-6.952,3.723-8.184l60.163-22.542c3.288-1.232,6.952,0.435,8.184,3.723l22.542,60.163
				C293.312,351.504,291.645,355.167,288.358,356.399z"/>
			<g>
				
					<rect x="212.806" y="299.725" transform="matrix(0.9364 -0.3509 0.3509 0.9364 -100.8064 106.953)" style="fill:#599AF2;" width="63.853" height="63.853"/>
				<path style="opacity:0.47;fill:#FFFFFF;" d="M225.098,374.264l-5.439-14.516l6.097-16.504c0.968-2.62,3.732-4.048,6.429-3.327
					l12.42,3.327c0.393,0.105,0.806-0.07,1.002-0.428l9.545-17.405c2.209-4.028,7.11-5.821,11.401-4.176l11.761,4.52l9.386,25.052
					L225.098,374.264z M222.86,359.74l3.995,10.662l56.984-21.352l-7.86-20.98l-10.501-4.035c-2.897-1.113-6.204,0.099-7.694,2.818
					l-9.546,17.404c-0.862,1.573-2.675,2.349-4.409,1.884l-12.42-3.327c-1.19-0.324-2.411,0.312-2.838,1.468L222.86,359.74z"/>
				<path style="opacity:0.47;fill:#FFFFFF;" d="M243.603,326.012c-3.493,0-6.786-2.138-8.082-5.595
					c-1.667-4.451,0.597-9.429,5.047-11.096c4.448-1.669,9.427,0.596,11.096,5.047l0,0c1.667,4.45-0.597,9.428-5.047,11.096
					C245.625,325.836,244.606,326.012,243.603,326.012z M243.587,311.772c-0.654,0-1.318,0.115-1.965,0.357
					c-2.901,1.088-4.378,4.333-3.291,7.234c1.087,2.901,4.332,4.377,7.234,3.291c2.901-1.088,4.378-4.333,3.29-7.234
					C248.011,313.167,245.863,311.772,243.587,311.772z"/>
			</g>
		</g>
	</g>
</g>
<g id="DESIGNED_BY_FREEPIK">
	<g>
		<g>
			<g id="XMLID_197_">
				<g id="XMLID_216_">
					<path id="XMLID_224_" d="M260.064,463.607c-0.431,0.441-0.8,0.927-1.104,1.447l-0.463-0.24c-0.067-0.296-0.348-0.5-0.656-0.464
						c-0.33,0.039-0.565,0.337-0.527,0.667c0.039,0.33,0.337,0.565,0.667,0.527c0.065-0.008,0.126-0.026,0.183-0.052l0.45,0.233
						c-0.25,0.552-0.431,1.134-0.537,1.737l0.743,0.131c0.229-1.301,0.846-2.497,1.785-3.459L260.064,463.607z"/>
					<path id="XMLID_223_" d="M265.529,461.314c-0.17,0-0.339,0.006-0.508,0.017l-0.073-0.624c0.187-0.149,0.295-0.388,0.265-0.642
						c-0.046-0.392-0.401-0.672-0.792-0.625c-0.392,0.046-0.672,0.401-0.626,0.792c0.03,0.253,0.189,0.459,0.403,0.561l0.073,0.622
						c-0.711,0.116-1.397,0.331-2.052,0.643l0.326,0.681c0.93-0.445,1.934-0.671,2.983-0.671c0.495,0,0.989,0.053,1.469,0.157
						l0.16-0.738C266.626,461.373,266.078,461.314,265.529,461.314z"/>
					<path id="XMLID_222_" d="M272.106,463.852c0.329-0.04,0.564-0.34,0.523-0.67c-0.04-0.329-0.34-0.564-0.67-0.523
						c-0.308,0.038-0.533,0.303-0.528,0.606l-0.414,0.362c-0.416-0.428-0.886-0.81-1.402-1.135l-0.402,0.639
						c1.13,0.712,2.013,1.719,2.553,2.914l0.688-0.311c-0.25-0.552-0.565-1.068-0.938-1.539l0.4-0.349
						C271.977,463.856,272.04,463.859,272.106,463.852z"/>
					<path id="XMLID_221_" d="M264.984,471.482c-0.384,0.023-0.772,0.035-1.152,0.035c-0.877,0-1.726-0.06-2.469-0.178
						c-0.389-0.062-0.843-0.154-1.265-0.291c1.042,1.854,3.057,3.113,5.367,3.113c2.844,0,5.241-1.909,5.926-4.486
						c-0.679,0.448-1.499,0.822-2.449,1.118C267.767,471.159,266.398,471.397,264.984,471.482z"/>
					<path id="XMLID_217_" d="M265.529,462.824c-3.339,0-6.055,2.656-6.055,5.92c0,0.424,0.046,0.846,0.137,1.256
						c0.671,0.481,2.695,0.886,5.326,0.728c2.868-0.173,5.276-0.954,6.646-2.15c-0.005-0.194-0.021-0.388-0.045-0.579
						C271.159,465.049,268.576,462.824,265.529,462.824z M263.379,469.313c-1.016,0-1.842-0.826-1.842-1.842
						s0.827-1.842,1.842-1.842c1.016,0,1.842,0.827,1.842,1.842S264.395,469.313,263.379,469.313z M268.097,468.409
						c-0.747,0-1.355-0.608-1.355-1.355s0.608-1.355,1.355-1.355c0.747,0,1.355,0.608,1.355,1.355S268.844,468.409,268.097,468.409z
						"/>
				</g>
				<path id="XMLID_214_" d="M281.469,464.684c-0.294-0.116-0.802-0.308-1.377-0.236c-0.549,0.068-0.84,0.339-0.84,1.003v0.862
					h2.219v1.71h-2.219v5.433h-1.924v-5.433h-1.334v-1.71h1.334v-0.885c0-1.673,0.892-2.772,2.558-2.772
					c0.64,0,1.152,0.121,1.584,0.307L281.469,464.684z"/>
				<path id="XMLID_212_" d="M286.153,468.003c-0.176-0.03-0.356-0.046-0.524-0.046c-0.892,0-1.504,0.546-1.504,1.607v3.892h-1.924
					v-7.143h1.865v0.781c0.45-0.671,1.135-0.973,2.012-0.973c0.413,0,0.844,0.127,1.09,0.335L286.153,468.003z"/>
				<path id="XMLID_209_" d="M293.79,469.874c0,0.221-0.015,0.487-0.037,0.649h-5.064c0.206,1.032,0.929,1.482,1.836,1.482
					c0.619,0,1.29-0.251,1.806-0.685l1.128,1.238c-0.811,0.745-1.843,1.084-3.044,1.084c-2.19,0-3.708-1.489-3.708-3.737
					c0-2.249,1.474-3.782,3.612-3.782C292.374,466.121,293.782,467.647,293.79,469.874z M288.696,469.21h3.162
					c-0.177-0.914-0.73-1.43-1.555-1.43C289.396,467.78,288.865,468.326,288.696,469.21z"/>
				<path id="XMLID_206_" d="M301.412,469.874c0,0.221-0.015,0.487-0.037,0.649h-5.064c0.206,1.032,0.929,1.482,1.835,1.482
					c0.619,0,1.29-0.251,1.806-0.685l1.128,1.238c-0.811,0.745-1.843,1.084-3.045,1.084c-2.19,0-3.708-1.489-3.708-3.737
					c0-2.249,1.475-3.782,3.612-3.782C299.997,466.121,301.405,467.647,301.412,469.874z M296.318,469.21h3.163
					c-0.177-0.914-0.73-1.43-1.556-1.43C297.019,467.78,296.488,468.326,296.318,469.21z"/>
				<path id="XMLID_203_" d="M309.725,469.881c0,2.145-1.489,3.76-3.457,3.76c-0.958,0-1.637-0.376-2.101-0.929v3.693h-1.917
					v-10.092h1.88v0.789c0.464-0.582,1.15-0.98,2.131-0.98C308.236,466.121,309.725,467.736,309.725,469.881z M304.07,469.881
					c0,1.128,0.744,1.968,1.835,1.968c1.135,0,1.843-0.877,1.843-1.968c0-1.091-0.708-1.968-1.843-1.968
					C304.815,467.913,304.07,468.753,304.07,469.881z"/>
				<path id="XMLID_200_" d="M312.816,463.976c0,0.693-0.538,1.224-1.231,1.224c-0.693,0-1.224-0.531-1.224-1.224
					c0-0.693,0.531-1.238,1.224-1.238C312.277,462.738,312.816,463.283,312.816,463.976z M312.558,473.456h-1.924v-7.143h1.924
					V473.456z"/>
				<path id="XMLID_198_" d="M315.768,468.856l2.691-2.543h2.359l-3.465,3.362l3.487,3.782h-2.367l-2.705-2.89v2.89h-1.924v-10.616
					h1.924V468.856z"/>
			</g>
			<g>
				<path d="M184.674,473.392v-1.051c-0.525,0.715-1.386,1.226-2.378,1.226c-1.838,0-3.137-1.4-3.137-3.691
					c0-2.247,1.284-3.706,3.137-3.706c0.948,0,1.809,0.467,2.378,1.24v-3.75h1.094v9.731H184.674z M184.674,471.48v-3.195
					c-0.394-0.613-1.24-1.138-2.116-1.138c-1.415,0-2.261,1.167-2.261,2.728c0,1.561,0.846,2.714,2.261,2.714
					C183.434,472.589,184.28,472.093,184.674,471.48z"/>
				<path d="M187.184,469.861c0-2.043,1.459-3.691,3.472-3.691c2.13,0,3.385,1.663,3.385,3.779v0.277h-5.704
					c0.088,1.328,1.021,2.436,2.539,2.436c0.802,0,1.619-0.321,2.174-0.89l0.525,0.715c-0.7,0.7-1.648,1.079-2.801,1.079
					C188.686,473.567,187.184,472.064,187.184,469.861z M190.641,467.075c-1.503,0-2.247,1.269-2.305,2.349h4.625
					C192.946,468.373,192.246,467.075,190.641,467.075z"/>
				<path d="M194.828,472.458l0.569-0.788c0.467,0.54,1.357,1.007,2.32,1.007c1.08,0,1.663-0.511,1.663-1.211
					c0-1.707-4.362-0.656-4.362-3.268c0-1.094,0.948-2.028,2.626-2.028c1.197,0,2.043,0.452,2.612,1.021l-0.511,0.759
					c-0.423-0.511-1.196-0.89-2.101-0.89c-0.963,0-1.561,0.482-1.561,1.109c0,1.546,4.362,0.525,4.362,3.268
					c0,1.182-0.948,2.13-2.772,2.13C196.52,473.567,195.543,473.216,194.828,472.458z"/>
				<path d="M201.671,464.609c0-0.408,0.336-0.744,0.729-0.744c0.408,0,0.744,0.336,0.744,0.744c0,0.409-0.336,0.729-0.744,0.729
					C202.006,465.338,201.671,465.017,201.671,464.609z M201.86,473.392v-7.047h1.094v7.047H201.86z"/>
				<path d="M204.763,475.201l0.554-0.817c0.583,0.7,1.284,0.963,2.291,0.963c1.167,0,2.261-0.569,2.261-2.116v-1.007
					c-0.51,0.715-1.371,1.255-2.364,1.255c-1.838,0-3.137-1.371-3.137-3.647c0-2.261,1.284-3.662,3.137-3.662
					c0.948,0,1.795,0.467,2.364,1.24v-1.065h1.094v6.842c0,2.334-1.634,3.064-3.355,3.064
					C206.412,476.251,205.595,476.018,204.763,475.201z M209.869,471.364v-3.078c-0.379-0.613-1.226-1.138-2.101-1.138
					c-1.415,0-2.261,1.124-2.261,2.684c0,1.547,0.846,2.685,2.261,2.685C208.644,472.516,209.49,471.977,209.869,471.364z"/>
				<path d="M217.543,473.392v-4.61c0-1.24-0.627-1.634-1.576-1.634c-0.861,0-1.678,0.525-2.086,1.094v5.15h-1.094v-7.047h1.094
					v1.021c0.496-0.583,1.459-1.196,2.509-1.196c1.474,0,2.247,0.744,2.247,2.276v4.946H217.543z"/>
				<path d="M220.052,469.861c0-2.043,1.459-3.691,3.472-3.691c2.13,0,3.385,1.663,3.385,3.779v0.277h-5.704
					c0.087,1.328,1.021,2.436,2.538,2.436c0.802,0,1.619-0.321,2.174-0.89l0.525,0.715c-0.7,0.7-1.649,1.079-2.801,1.079
					C221.555,473.567,220.052,472.064,220.052,469.861z M223.51,467.075c-1.503,0-2.247,1.269-2.305,2.349h4.625
					C225.815,468.373,225.115,467.075,223.51,467.075z"/>
				<path d="M233.416,473.392v-1.051c-0.525,0.715-1.386,1.226-2.378,1.226c-1.838,0-3.137-1.4-3.137-3.691
					c0-2.247,1.284-3.706,3.137-3.706c0.948,0,1.81,0.467,2.378,1.24v-3.75h1.094v9.731H233.416z M233.416,471.48v-3.195
					c-0.394-0.613-1.24-1.138-2.116-1.138c-1.415,0-2.261,1.167-2.261,2.728c0,1.561,0.846,2.714,2.261,2.714
					C232.176,472.589,233.022,472.093,233.416,471.48z"/>
				<path d="M239.733,473.392v-9.731h1.094v3.75c0.569-0.773,1.415-1.24,2.378-1.24c1.838,0,3.137,1.459,3.137,3.706
					c0,2.29-1.299,3.691-3.137,3.691c-0.992,0-1.853-0.51-2.378-1.226v1.051H239.733z M242.928,472.589
					c1.43,0,2.276-1.152,2.276-2.714c0-1.561-0.846-2.728-2.276-2.728c-0.861,0-1.721,0.525-2.101,1.138v3.195
					C241.207,472.093,242.067,472.589,242.928,472.589z"/>
				<path d="M247.538,475.157c0.16,0.073,0.423,0.117,0.598,0.117c0.481,0,0.802-0.161,1.05-0.744l0.467-1.065l-2.947-7.12h1.182
					l2.349,5.777l2.334-5.777h1.196l-3.531,8.477c-0.423,1.021-1.138,1.415-2.072,1.43c-0.233,0-0.598-0.044-0.802-0.102
					L247.538,475.157z"/>
			</g>
		</g>
	</g>
</g>
</svg>
